<?xml version="1.0" standalone="no"?><!DOCTYPE svg PUBLIC "-//W3C//DTD SVG 1.1//EN" "http://www.w3.org/Graphics/SVG/1.1/DTD/svg11.dtd"><svg t="1642857821836" class="icon" viewBox="0 0 1024 1024" version="1.1" xmlns="http://www.w3.org/2000/svg" p-id="1884" width="32" height="32" xmlns:xlink="http://www.w3.org/1999/xlink"><defs><style type="text/css"></style></defs><path d="M826.802424 432.174545c-5.042424-3.413333 16.989091-125.284848 16.989091-125.284848a11.326061 11.326061 0 1 0-12.722424-11.015758 11.248485 11.248485 0 0 0 5.507879 9.774546s-24.203636 121.483636-28.004849 122.724848-19.93697 2.094545-21.255757 0-2.094545-121.949091-2.094546-121.949091a11.015758 11.015758 0 0 0 8.455758-11.636363 11.481212 11.481212 0 1 0-23.272728 0 11.946667 11.946667 0 0 0 6.749091 10.627879s-1.241212 122.33697-7.214545 124.121212z" fill="#352635" p-id="1885"></path><path d="M367.476364 732.70303c-60.586667 0-113.027879-0.853333-141.886061-1.706666s-46.545455-7.292121-47.709091-17.299394c-1.706667-11.248485 14.972121-29.323636 32.349091-35.219394 19.781818-6.671515 66.792727-8.300606 121.173333-10.24 142.894545-5.042424 338.540606-12.024242 357.779394-111.243637l2.870303-15.515151c10.472727-54.923636 18.075152-94.564848 42.278788-111.166061a98.676364 98.676364 0 0 1 50.501818-14.894545c31.961212 0 50.346667 20.169697 54.303031 40.184242C843.946667 481.512727 830.060606 496.484848 814.545455 512c-13.420606 14.041212-27.306667 28.470303-24.746667 49.803636 5.895758 44.450909-2.947879 125.905455-72.998788 149.566061-54.30303 18.385455-242.191515 21.100606-349.090909 21.100606z" fill="#FFDD33" p-id="1886"></path><path d="M784.911515 423.563636c27.539394 0 43.287273 17.066667 46.545455 33.823031 3.878788 20.635152-6.050909 32.271515-22.574546 49.493333-14.041212 14.584242-29.866667 31.030303-26.841212 56.242424 0.620606 4.57697 13.963636 113.493333-67.801212 141.110303-38.787879 13.187879-165.391515 20.712727-346.763636 20.712728-60.586667 0-112.950303-0.853333-141.730909-1.706667-31.806061-0.853333-39.563636-8.688485-40.184243-10.705455-0.930909-6.128485 12.179394-21.643636 27.151515-26.68606 18.695758-6.283636 65.163636-7.757576 118.923637-9.852121 145.532121-5.197576 344.746667-12.25697 365.149091-117.449697 1.008485-5.197576 1.939394-10.24 2.947878-15.515152 9.69697-51.122424 17.37697-91.384242 38.787879-106.201212a90.996364 90.996364 0 0 1 46.08-13.575758m0-15.515151a106.123636 106.123636 0 0 0-54.84606 16.290909c-29.246061 20.014545-36.072727 67.413333-48.407273 131.180606-25.212121 131.490909-401.532121 91.694545-473.6 115.975758-32.73697 11.015758-72.843636 65.008485 17.609697 67.568484 28.780606 0.853333 81.37697 1.706667 142.196363 1.706667 130.870303 0 299.907879-4.033939 351.728485-21.566061 79.747879-26.841212 83.316364-119.156364 78.196364-157.78909s59.500606-52.673939 49.260606-106.589091c-4.654545-23.272727-25.987879-46.545455-62.060606-46.545455z" fill="#352635" p-id="1887"></path><path d="M669.556364 566.690909c-9.386667-50.424242-22.729697-107.132121-75.71394-155.151515-75.636364-68.57697-273.687273-47.398788-318.681212 74.550303a201.69697 201.69697 0 0 0 28.004849 195.413333c5.12 7.214545 31.573333 12.25697 66.56 14.351515A665.6 665.6 0 0 0 520.455758 682.666667c79.592727-18.307879 129.706667-36.926061 143.747878-82.850909 1.706667-10.24 7.835152-19.704242 5.352728-33.124849z" fill="#EE7725" p-id="1888"></path><path d="M464.213333 358.089697c48.717576 0 91.384242 13.963636 116.984243 38.787879a257.706667 257.706667 0 0 1 77.032727 171.752727c1.629091 54.30303-28.858182 77.575758-136.067879 103.641212a573.284848 573.284848 0 0 1-125.98303 12.644849c-60.664242 0-91.073939-7.369697-97.28-11.170909-42.511515-63.45697-51.587879-130.715152-26.918788-201.15394 27.772121-79.127273 116.363636-114.501818 192.232727-114.501818m0-15.515152c-84.635152 0-177.260606 40.572121-206.894545 124.89697A230.94303 230.94303 0 0 0 287.030303 683.054545c7.214545 10.550303 54.30303 16.989091 109.459394 16.989091a589.575758 589.575758 0 0 0 129.629091-13.110303c98.909091-23.893333 150.109091-48.09697 147.859394-119.156363A271.515152 271.515152 0 0 0 591.90303 385.241212c-29.633939-28.237576-77.575758-42.666667-127.689697-42.666667z" fill="#352635" p-id="1889"></path><path d="M790.49697 460.722424m-15.515152 0a15.515152 15.515152 0 1 0 31.030303 0 15.515152 15.515152 0 1 0-31.030303 0Z" fill="#352635" p-id="1890"></path><path d="M418.909091 699.267879c-2.637576-0.698182-65.163636-17.764848-91.539394-65.163637-27.772121-49.958788-26.298182-134.283636 24.203636-188.819394 48.64-52.673939 122.259394-64.077576 178.889697-27.616969 42.201212 27.229091 66.482424 82.075152 62.758788 116.363636-8.688485 78.81697-56.164848 121.793939-133.66303 121.79394H457.69697c-40.339394 0-80.135758-38.787879-86.962425-84.014546-7.214545-48.64 21.566061-92.392727 65.629091-99.529697A80.290909 80.290909 0 0 1 502.846061 496.484848a71.990303 71.990303 0 0 1 19.393939 66.792728 46.545455 46.545455 0 0 1-32.038788 33.82303c-28.780606 8.22303-45.847273-4.654545-52.208485-19.393939a40.727273 40.727273 0 0 1 4.189091-40.339394 7.757576 7.757576 0 0 1 12.567273 1.163636 7.757576 7.757576 0 0 1 0 8.455758 25.522424 25.522424 0 0 0-2.249697 24.513939c5.042424 11.636364 17.066667 15.515152 33.745454 10.705455a30.564848 30.564848 0 0 0 21.255758-23.272728 56.009697 56.009697 0 0 0-15.515151-51.975757 65.318788 65.318788 0 0 0-52.518788-19.471515c-36.227879 5.895758-58.957576 41.115152-52.829091 81.92 5.740606 38.167273 38.787879 70.593939 71.68 70.826666h1.551515c70.516364 0 110.235152-36.38303 118.147879-108.06303 3.180606-28.935758-18.928485-77.575758-55.77697-101.469091-41.037576-26.453333-108.606061-29.866667-159.107879 24.979394-45.692121 49.493333-47.010909 125.672727-21.953939 170.666667 23.272727 41.580606 81.37697 57.483636 81.92 57.638788z" fill="#352635" p-id="1891"></path></svg>